<svg width="22" height="23" viewBox="0 0 22 23" fill="none" xmlns="http://www.w3.org/2000/svg">
<path opacity="0.87" d="M20.887 16.42V19.42C20.8881 19.6985 20.8311 19.9741 20.7195 20.2293C20.608 20.4845 20.4443 20.7136 20.2391 20.9018C20.0339 21.0901 19.7916 21.2335 19.5278 21.3227C19.2639 21.4119 18.9844 21.445 18.707 21.42C15.6299 21.0856 12.674 20.0341 10.077 18.35C7.66085 16.8146 5.61235 14.7661 4.07702 12.35C2.387 9.74118 1.33526 6.77097 1.00702 3.67997C0.982029 3.40344 1.01489 3.12474 1.10352 2.8616C1.19214 2.59846 1.33459 2.35666 1.52178 2.1516C1.70898 1.94653 1.93682 1.78268 2.19081 1.6705C2.4448 1.55831 2.71936 1.50024 2.99702 1.49997H5.99702C6.48232 1.4952 6.95281 1.66705 7.32078 1.98351C7.68875 2.29996 7.9291 2.73942 7.99702 3.21997C8.12364 4.18004 8.35847 5.1227 8.69702 6.02997C8.83156 6.3879 8.86068 6.77689 8.78092 7.15086C8.70117 7.52482 8.51588 7.86809 8.24702 8.13998L6.97702 9.40997C8.40057 11.9135 10.4735 13.9864 12.977 15.41L14.247 14.14C14.5189 13.8711 14.8622 13.6858 15.2361 13.6061C15.6101 13.5263 15.9991 13.5554 16.357 13.69C17.2643 14.0285 18.207 14.2634 19.167 14.39C19.6528 14.4585 20.0964 14.7032 20.4136 15.0775C20.7307 15.4518 20.8992 15.9296 20.887 16.42Z" stroke="white" stroke-width="2" stroke-linecap="round" stroke-linejoin="round"/>
</svg>
