<svg width="15" height="15" viewBox="0 0 15 15" fill="none" xmlns="http://www.w3.org/2000/svg">
<path fill-rule="evenodd" clip-rule="evenodd" d="M3.62502 3.30005C3.62502 2.19548 4.52045 1.30005 5.62502 1.30005H7.82502C8.92959 1.30005 9.82502 2.19548 9.82502 3.30005C9.82502 3.47954 9.97053 3.62505 10.15 3.62505H10.475C12.6842 3.62505 14.475 5.41591 14.475 7.62505V9.70005C14.475 11.9092 12.6842 13.7 10.475 13.7H4.52502C2.31588 13.7 0.525024 11.9092 0.525024 9.70005V7.62505C0.525024 5.87471 1.64926 4.38696 3.21503 3.84449C3.45097 3.76275 3.62502 3.54975 3.62502 3.30005ZM7.11252 11.375C8.6106 11.375 9.82503 10.1606 9.82503 8.66255C9.82503 7.16448 8.6106 5.95005 7.11252 5.95005C5.61445 5.95005 4.40002 7.16448 4.40002 8.66255C4.40002 10.1606 5.61445 11.375 7.11252 11.375Z" fill="white"/>
<path d="M3.21503 3.84449L3.05135 3.37204L3.21503 3.84449ZM5.62502 0.800049C4.24431 0.800049 3.12502 1.91934 3.12502 3.30005H4.12502C4.12502 2.47162 4.7966 1.80005 5.62502 1.80005V0.800049ZM7.82502 0.800049H5.62502V1.80005H7.82502V0.800049ZM10.325 3.30005C10.325 1.91934 9.20574 0.800049 7.82502 0.800049V1.80005C8.65345 1.80005 9.32502 2.47162 9.32502 3.30005H10.325ZM10.15 3.12505C10.2467 3.12505 10.325 3.2034 10.325 3.30005H9.32502C9.32502 3.75568 9.69439 4.12505 10.15 4.12505V3.12505ZM10.475 3.12505H10.15V4.12505H10.475V3.12505ZM14.975 7.62505C14.975 5.13977 12.9603 3.12505 10.475 3.12505V4.12505C12.408 4.12505 13.975 5.69205 13.975 7.62505H14.975ZM14.975 9.70005V7.62505H13.975V9.70005H14.975ZM10.475 14.2C12.9603 14.2 14.975 12.1853 14.975 9.70005H13.975C13.975 11.633 12.408 13.2 10.475 13.2V14.2ZM4.52502 14.2H10.475V13.2H4.52502V14.2ZM0.0250244 9.70005C0.0250244 12.1853 2.03974 14.2 4.52502 14.2V13.2C2.59202 13.2 1.02502 11.633 1.02502 9.70005H0.0250244ZM0.0250244 7.62505V9.70005H1.02502V7.62505H0.0250244ZM3.05135 3.37204C1.29049 3.9821 0.0250244 5.65514 0.0250244 7.62505H1.02502C1.02502 6.09428 2.00803 4.79182 3.37872 4.31694L3.05135 3.37204ZM3.12502 3.30005C3.12502 3.3057 3.12363 3.31556 3.11255 3.32994C3.10044 3.34564 3.07947 3.3623 3.05135 3.37204L3.37872 4.31694C3.78563 4.17596 4.12502 3.79323 4.12502 3.30005H3.12502ZM9.32503 8.66255C9.32503 9.88448 8.33446 10.875 7.11252 10.875V11.875C8.88674 11.875 10.325 10.4368 10.325 8.66255H9.32503ZM7.11252 6.45005C8.33446 6.45005 9.32503 7.44062 9.32503 8.66255H10.325C10.325 6.88833 8.88674 5.45005 7.11252 5.45005V6.45005ZM4.90002 8.66255C4.90002 7.44062 5.89059 6.45005 7.11252 6.45005V5.45005C5.33831 5.45005 3.90002 6.88833 3.90002 8.66255H4.90002ZM7.11252 10.875C5.89059 10.875 4.90002 9.88448 4.90002 8.66255H3.90002C3.90002 10.4368 5.33831 11.875 7.11252 11.875V10.875Z" fill="white"/>
</svg>
