<svg width="14" height="20" viewBox="0 0 14 20" fill="none" xmlns="http://www.w3.org/2000/svg">
<path d="M6.72731 1C6.07633 1 5.452 1.2586 4.99169 1.71892C4.53137 2.17924 4.27277 2.80356 4.27277 3.45455V10C4.27277 10.651 4.53137 11.2753 4.99169 11.7356C5.452 12.1959 6.07633 12.4545 6.72731 12.4545C7.3783 12.4545 8.00262 12.1959 8.46294 11.7356C8.92325 11.2753 9.18186 10.651 9.18186 10V3.45455C9.18186 2.80356 8.92325 2.17924 8.46294 1.71892C8.00262 1.2586 7.3783 1 6.72731 1V1Z" stroke="white" stroke-width="2" stroke-linecap="round" stroke-linejoin="round"/>
<path d="M12.4545 8.36365V10C12.4545 11.519 11.8511 12.9757 10.7771 14.0498C9.70299 15.1239 8.24624 15.7273 6.72727 15.7273C5.20831 15.7273 3.75155 15.1239 2.67748 14.0498C1.60341 12.9757 1 11.519 1 10V8.36365" stroke="white" stroke-width="2" stroke-linecap="round" stroke-linejoin="round"/>
<path d="M6.72723 15.7273V19" stroke="white" stroke-width="2" stroke-linecap="round" stroke-linejoin="round"/>
<path d="M3.45456 19H10" stroke="white" stroke-width="2" stroke-linecap="round" stroke-linejoin="round"/>
</svg>
